# xmcd
#
# Track frame offsets:
#	150
#	18172
#	38480
#	55160
#	76315
#	96105
#	112127
#	129555
#	147085
#	164592
#	183555
#	200857
#
# Disc length: 2797 seconds
#
# Revision: 8
# Processed by: cddbd v1.5.2PL0 Copyright (c) Steve Scherf et al.
# Submitted via: EasyCDDAExtractor 15.3.0.1
#
DISCID=a40aeb0c
DTITLE=Ednita Nazario - Espiritu Libre
DYEAR=1996
DGENRE=Latin
TTITLE0=Espiritu Libre
TTITLE1=Atada A Tu Volcan
TTITLE2=Lloviendo Flores
TTITLE3=Siento Que Te Acabas De Ir
TTITLE4=Figurate
TTITLE5=Te Quiero
TTITLE6=Ultima Vez
TTITLE7=Desearia
TTITLE8=No Te Pido Mas
TTITLE9=No Puedo Sin Tu Amor
TTITLE10=Templo De Mi Corazon
TTITLE11=Lloviendo Flores (Hidden Track)
EXTD=
EXTT0=
EXTT1=
EXTT2=
EXTT3=
EXTT4=
EXTT5=
EXTT6=
EXTT7=
EXTT8=
EXTT9=
EXTT10=
EXTT11=
PLAYORDER=
